<svg xmlns="http://www.w3.org/2000/svg" viewBox="0 0 64 64" role="img" aria-label="Coffee cup icon">
  <path d="M18 23h28v18a6 6 0 0 1-6 6H24a6 6 0 0 1-6-6V23z" fill="#92400e" />
  <path d="M46 27h4a6 6 0 0 1 0 12h-4" fill="none" stroke="#92400e" stroke-width="3" stroke-linecap="round" />
  <rect x="14" y="47" width="36" height="4" rx="2" fill="#78350f" />
  <path d="M26 12c0 3-2 3-2 6" fill="none" stroke="#a16207" stroke-width="2" stroke-linecap="round" />
  <path d="M34 10c0 3-2 3-2 6" fill="none" stroke="#a16207" stroke-width="2" stroke-linecap="round" />
  <path d="M42 12c0 3-2 3-2 6" fill="none" stroke="#a16207" stroke-width="2" stroke-linecap="round" />
</svg>

