<svg xmlns="http://www.w3.org/2000/svg" width="96" height="96" viewBox="0 0 96 96" role="img" aria-label="Exploding Kittens themed icon">
  <defs>
    <linearGradient id="bg" x1="0" y1="0" x2="1" y2="1">
      <stop offset="0%" stop-color="#0f172a" />
      <stop offset="100%" stop-color="#1e293b" />
    </linearGradient>
    <radialGradient id="blast" cx="50%" cy="50%" r="50%">
      <stop offset="0%" stop-color="#fef08a" />
      <stop offset="55%" stop-color="#f59e0b" />
      <stop offset="100%" stop-color="#dc2626" />
    </radialGradient>
  </defs>

  <rect width="96" height="96" rx="18" fill="url(#bg)" />

  <path d="M48 12l6 10 12-4-2 11 12 2-8 8 8 8-12 2 2 11-12-4-6 10-6-10-12 4 2-11-12-2 8-8-8-8 12-2-2-11 12 4z" fill="url(#blast)" />

  <g transform="translate(0 4)">
    <ellipse cx="48" cy="57" rx="19" ry="15" fill="#d6d3d1" />
    <path d="M30 56c2-7 8-12 18-12s16 5 18 12c-4 2-10 4-18 4s-14-2-18-4z" fill="#e7e5e4" />

    <path d="M36 47l-6-7 8 2z" fill="#d6d3d1" />
    <path d="M60 47l6-7-8 2z" fill="#d6d3d1" />
    <path d="M36 46l-3-3 4 1z" fill="#fda4af" />
    <path d="M60 46l3-3-4 1z" fill="#fda4af" />

    <ellipse cx="41" cy="54" rx="2.4" ry="3" fill="#111827" />
    <ellipse cx="55" cy="54" rx="2.4" ry="3" fill="#111827" />
    <circle cx="41" cy="53" r="0.8" fill="#f8fafc" />
    <circle cx="55" cy="53" r="0.8" fill="#f8fafc" />

    <path d="M48 56l-2 3h4z" fill="#111827" />
    <path d="M48 59c-2 2-4 2-6 1M48 59c2 2 4 2 6 1" stroke="#111827" stroke-width="1.8" fill="none" stroke-linecap="round" />

    <path d="M35 59l-8 1M35 61l-8 3M61 59l8 1M61 61l8 3" stroke="#e5e7eb" stroke-width="1.8" stroke-linecap="round" />
    <path d="M41 64c4 2 10 2 14 0" stroke="#a8a29e" stroke-width="2" fill="none" stroke-linecap="round" />
  </g>
</svg>


